<svg width="24" height="24" viewBox="0 0 24 24" fill="none" xmlns="http://www.w3.org/2000/svg">
<path d="M6.16634 13.6668C6.62658 13.6668 6.99968 13.2937 6.99968 12.8335C6.99968 12.3732 6.62658 12.0001 6.16634 12.0001C5.7061 12.0001 5.33301 12.3732 5.33301 12.8335C5.33301 13.2937 5.7061 13.6668 6.16634 13.6668Z" fill="#030712"/>
<path d="M2.83334 10.3334C3.29357 10.3334 3.66667 9.96032 3.66667 9.50008C3.66667 9.03984 3.29357 8.66675 2.83334 8.66675C2.3731 8.66675 2 9.03984 2 9.50008C2 9.96032 2.3731 10.3334 2.83334 10.3334Z" fill="#030712"/>
<path d="M6.16634 7.00004C6.62658 7.00004 6.99968 6.62694 6.99968 6.16671C6.99968 5.70647 6.62658 5.33337 6.16634 5.33337C5.7061 5.33337 5.33301 5.70647 5.33301 6.16671C5.33301 6.62694 5.7061 7.00004 6.16634 7.00004Z" fill="#030712"/>
<path d="M2.83334 3.66667C3.29357 3.66667 3.66667 3.29357 3.66667 2.83333C3.66667 2.3731 3.29357 2 2.83334 2C2.3731 2 2 2.3731 2 2.83333C2 3.29357 2.3731 3.66667 2.83334 3.66667Z" fill="#030712"/>
<path d="M21.1666 13.6668C21.6268 13.6668 21.9999 13.2937 21.9999 12.8335C21.9999 12.3732 21.6268 12.0001 21.1666 12.0001C20.7063 12.0001 20.3333 12.3732 20.3333 12.8335C20.3333 13.2937 20.7063 13.6668 21.1666 13.6668Z" fill="#030712"/>
<path d="M17.8333 10.3334C18.2936 10.3334 18.6667 9.96032 18.6667 9.50008C18.6667 9.03984 18.2936 8.66675 17.8333 8.66675C17.3731 8.66675 17 9.03984 17 9.50008C17 9.96032 17.3731 10.3334 17.8333 10.3334Z" fill="#030712"/>
<path d="M21.1666 7.00004C21.6268 7.00004 21.9999 6.62694 21.9999 6.16671C21.9999 5.70647 21.6268 5.33337 21.1666 5.33337C20.7063 5.33337 20.3333 5.70647 20.3333 6.16671C20.3333 6.62694 20.7063 7.00004 21.1666 7.00004Z" fill="#030712"/>
<path d="M17.8333 3.66667C18.2936 3.66667 18.6667 3.29357 18.6667 2.83333C18.6667 2.3731 18.2936 2 17.8333 2C17.3731 2 17 2.3731 17 2.83333C17 3.29357 17.3731 3.66667 17.8333 3.66667Z" fill="#030712"/>
<path d="M13.6666 22C14.1268 22 14.4999 21.6269 14.4999 21.1667C14.4999 20.7065 14.1268 20.3334 13.6666 20.3334C13.2064 20.3334 12.8333 20.7065 12.8333 21.1667C12.8333 21.6269 13.2064 22 13.6666 22Z" fill="#030712"/>
<path d="M10.3333 18.6667C10.7936 18.6667 11.1667 18.2936 11.1667 17.8333C11.1667 17.3731 10.7936 17 10.3333 17C9.8731 17 9.5 17.3731 9.5 17.8333C9.5 18.2936 9.8731 18.6667 10.3333 18.6667Z" fill="#030712"/>
<path d="M13.6666 15.3334C14.1268 15.3334 14.4999 14.9603 14.4999 14.5001C14.4999 14.0398 14.1268 13.6667 13.6666 13.6667C13.2064 13.6667 12.8333 14.0398 12.8333 14.5001C12.8333 14.9603 13.2064 15.3334 13.6666 15.3334Z" fill="#030712"/>
<path d="M10.3333 11.9999C10.7936 11.9999 11.1667 11.6268 11.1667 11.1666C11.1667 10.7064 10.7936 10.3333 10.3333 10.3333C9.8731 10.3333 9.5 10.7064 9.5 11.1666C9.5 11.6268 9.8731 11.9999 10.3333 11.9999Z" fill="#030712"/>
<path d="M14.5001 4.5C14.0581 4.5 13.6341 4.32441 13.3216 4.01185C13.009 3.69928 12.8334 3.27536 12.8334 2.83333C12.8334 2.61232 12.7456 2.40036 12.5893 2.24408C12.4331 2.0878 12.2211 2 12.0001 2C11.7791 2 11.5671 2.0878 11.4108 2.24408C11.2545 2.40036 11.1668 2.61232 11.1668 2.83333C11.1668 3.27536 10.9912 3.69928 10.6786 4.01185C10.366 4.32441 9.94211 4.5 9.50008 4.5C9.27907 4.5 9.06711 4.5878 8.91083 4.74408C8.75455 4.90036 8.66675 5.11232 8.66675 5.33333C8.66675 5.55435 8.75455 5.76631 8.91083 5.92259C9.06711 6.07887 9.27907 6.16667 9.50008 6.16667C9.94211 6.16667 10.366 6.34226 10.6786 6.65482C10.9912 6.96738 11.1668 7.39131 11.1668 7.83333C11.1668 8.05435 11.2545 8.26631 11.4108 8.42259C11.5671 8.57887 11.7791 8.66667 12.0001 8.66667C12.2211 8.66667 12.4331 8.57887 12.5893 8.42259C12.7456 8.26631 12.8334 8.05435 12.8334 7.83333C12.8334 7.39131 13.009 6.96738 13.3216 6.65482C13.6341 6.34226 14.0581 6.16667 14.5001 6.16667C14.7211 6.16667 14.9331 6.07887 15.0893 5.92259C15.2456 5.76631 15.3334 5.55435 15.3334 5.33333C15.3334 5.11232 15.2456 4.90036 15.0893 4.74408C14.9331 4.5878 14.7211 4.5 14.5001 4.5Z" fill="#030712"/>
<path d="M7.83335 17.8332C7.39132 17.8332 6.9674 17.6577 6.65484 17.3451C6.34228 17.0325 6.16668 16.6086 6.16668 16.1666C6.16668 15.9456 6.07888 15.7336 5.9226 15.5773C5.76632 15.421 5.55436 15.3333 5.33334 15.3333C5.11233 15.3333 4.90037 15.421 4.74409 15.5773C4.58781 15.7336 4.50001 15.9456 4.50001 16.1666C4.50001 16.6086 4.32441 17.0325 4.01185 17.3451C3.69929 17.6577 3.27536 17.8332 2.83334 17.8332C2.61232 17.8332 2.40036 17.921 2.24408 18.0773C2.0878 18.2336 2 18.4456 2 18.6666C2 18.8876 2.0878 19.0996 2.24408 19.2558C2.40036 19.4121 2.61232 19.4999 2.83334 19.4999C3.27536 19.4999 3.69929 19.6755 4.01185 19.9881C4.32441 20.3006 4.50001 20.7245 4.50001 21.1666C4.50001 21.3876 4.58781 21.5996 4.74409 21.7558C4.90037 21.9121 5.11233 21.9999 5.33334 21.9999C5.55436 21.9999 5.76632 21.9121 5.9226 21.7558C6.07888 21.5996 6.16668 21.3876 6.16668 21.1666C6.16668 20.7245 6.34228 20.3006 6.65484 19.9881C6.9674 19.6755 7.39132 19.4999 7.83335 19.4999C8.05437 19.4999 8.26633 19.4121 8.42261 19.2558C8.57889 19.0996 8.66669 18.8876 8.66669 18.6666C8.66669 18.4456 8.57889 18.2336 8.42261 18.0773C8.26633 17.921 8.05437 17.8332 7.83335 17.8332Z" fill="#030712"/>
<path d="M21.1666 17.8332C20.7246 17.8332 20.3006 17.6577 19.9881 17.3451C19.6755 17.0325 19.4999 16.6086 19.4999 16.1666C19.4999 15.9456 19.4121 15.7336 19.2558 15.5773C19.0996 15.421 18.8876 15.3333 18.6666 15.3333C18.4456 15.3333 18.2336 15.421 18.0773 15.5773C17.9211 15.7336 17.8333 15.9456 17.8333 16.1666C17.8333 16.6086 17.6577 17.0325 17.3451 17.3451C17.0325 17.6577 16.6086 17.8332 16.1666 17.8332C15.9456 17.8332 15.7336 17.921 15.5773 18.0773C15.421 18.2336 15.3333 18.4456 15.3333 18.6666C15.3333 18.8876 15.421 19.0996 15.5773 19.2558C15.7336 19.4121 15.9456 19.4999 16.1666 19.4999C16.6086 19.4999 17.0325 19.6755 17.3451 19.9881C17.6577 20.3006 17.8333 20.7245 17.8333 21.1666C17.8333 21.3876 17.9211 21.5996 18.0773 21.7558C18.2336 21.9121 18.4456 21.9999 18.6666 21.9999C18.8876 21.9999 19.0996 21.9121 19.2558 21.7558C19.4121 21.5996 19.4999 21.3876 19.4999 21.1666C19.4999 20.7245 19.6755 20.3006 19.9881 19.9881C20.3006 19.6755 20.7246 19.4999 21.1666 19.4999C21.3876 19.4999 21.5996 19.4121 21.7559 19.2558C21.9121 19.0996 21.9999 18.8876 21.9999 18.6666C21.9999 18.4456 21.9121 18.2336 21.7559 18.0773C21.5996 17.921 21.3876 17.8332 21.1666 17.8332Z" fill="#030712"/>
</svg>
