<svg width="24" height="24" viewBox="0 0 24 24" fill="none" xmlns="http://www.w3.org/2000/svg">
<path d="M20.9717 5.86753C20.6672 5.73541 20.3318 5.70069 20.0083 5.76777C19.6847 5.83486 19.3877 6.00072 19.155 6.24424L17 8.48885L13.1783 4.50827C12.8658 4.18282 12.4419 4 12 4C11.5581 4 11.1342 4.18282 10.8217 4.50827L7 8.48885L4.845 6.24424C4.61191 6.00154 4.31497 5.83626 3.99172 5.76931C3.66846 5.70236 3.33341 5.73673 3.02891 5.86809C2.72441 5.99946 2.46414 6.2219 2.281 6.50731C2.09786 6.79272 2.00007 7.12828 2 7.47157V16.6601C2.00132 17.8107 2.44073 18.9137 3.22185 19.7273C4.00296 20.5409 5.062 20.9986 6.16667 21H17.8333C18.938 20.9986 19.997 20.5409 20.7782 19.7273C21.5593 18.9137 21.9987 17.8107 22 16.6601V7.47157C22.0001 7.12826 21.9024 6.79262 21.7194 6.50711C21.5364 6.2216 21.2761 5.99902 20.9717 5.86753ZM20.3333 16.6601C20.3333 17.3507 20.0699 18.013 19.6011 18.5013C19.1323 18.9897 18.4964 19.264 17.8333 19.264H6.16667C5.50363 19.264 4.86774 18.9897 4.3989 18.5013C3.93006 18.013 3.66667 17.3507 3.66667 16.6601V7.47157L6.41083 10.3299C6.56711 10.4926 6.77903 10.584 7 10.584C7.22097 10.584 7.43289 10.4926 7.58917 10.3299L12 5.7356L16.4108 10.3299C16.5671 10.4926 16.779 10.584 17 10.584C17.221 10.584 17.4329 10.4926 17.5892 10.3299L20.3333 7.47157V16.6601Z" fill="#030712"/>
</svg>
