<svg width="24" height="24" viewBox="0 0 24 24" fill="none" xmlns="http://www.w3.org/2000/svg">
<path d="M21.2896 9.89402L20.6337 9.00139C20.1792 8.38291 19.5859 7.87972 18.9015 7.53231C18.2171 7.18489 17.4607 7.00295 16.6931 7.0011H7.3176C6.56584 7.00306 5.82457 7.17759 5.15091 7.51124C4.47725 7.8449 3.88919 8.32876 3.43203 8.92554L2.74777 9.82067C2.19225 10.5535 1.93107 11.4677 2.01559 12.3834C2.10012 13.2992 2.52423 14.1501 3.2045 14.7689L9.86381 21.1923C10.4487 21.7139 11.2054 22.0015 11.9891 21.9999C12.7894 21.9984 13.561 21.7016 14.1561 21.1665L20.7704 14.8047C21.4546 14.1989 21.8873 13.359 21.9834 12.4502C22.0795 11.5414 21.832 10.6295 21.2896 9.89402ZM19.2893 9.9832L19.9453 10.8783C20.0112 10.9699 20.0692 11.0669 20.1186 11.1684H16.1256C16.0652 10.7692 15.9613 10.378 15.8155 10.0015L15.2821 8.66801H16.6931C17.1986 8.66896 17.6968 8.78844 18.1476 9.01686C18.5985 9.24527 18.9896 9.57624 19.2893 9.9832ZM11.9908 18.7428L9.68295 13.517C9.59947 13.296 9.53642 13.0678 9.49459 12.8353H14.4553C14.4203 13.0185 14.3713 13.1988 14.3086 13.3745L11.9908 18.7428ZM9.5821 11.1684C9.61695 11.0189 9.66065 10.8717 9.71295 10.7275L10.5331 8.66801H13.4868L14.2678 10.6208C14.3363 10.7991 14.3921 10.9821 14.4345 11.1684H9.5821ZM4.75723 9.93569C5.05857 9.54259 5.44611 9.22388 5.89 9.00411C6.33388 8.78433 6.82229 8.66934 7.3176 8.66801H8.73447L8.16522 10.109C8.02788 10.451 7.92541 10.8059 7.85935 11.1684H3.86876C3.92593 11.0506 3.9949 10.9389 4.07463 10.835L4.75723 9.93569ZM4.3405 13.547C4.12307 13.3498 3.95225 13.1067 3.84043 12.8353H7.81767C7.87295 13.2843 7.98122 13.7252 8.14022 14.1488L10.4964 19.4829L4.3405 13.547ZM13.4752 19.5146L15.8538 14.0021C15.9919 13.6249 16.0881 13.2336 16.1406 12.8353H20.167C20.049 13.1214 19.8688 13.3776 19.6394 13.5854L13.4752 19.5146Z" fill="#030712"/>
<path d="M11.9992 5.3343C12.2203 5.3343 12.4323 5.24649 12.5886 5.09019C12.7449 4.93389 12.8327 4.7219 12.8327 4.50085V2.83394C12.8327 2.6129 12.7449 2.4009 12.5886 2.2446C12.4323 2.0883 12.2203 2.00049 11.9992 2.00049C11.7782 2.00049 11.5662 2.0883 11.4099 2.2446C11.2536 2.4009 11.1658 2.6129 11.1658 2.83394V4.50085C11.1658 4.7219 11.2536 4.93389 11.4099 5.09019C11.5662 5.24649 11.7782 5.3343 11.9992 5.3343Z" fill="#030712"/>
<path d="M15.7937 5.25082C15.8921 5.30029 15.9993 5.32978 16.1092 5.33756C16.2191 5.34534 16.3294 5.33127 16.4338 5.29617C16.5382 5.26106 16.6346 5.20561 16.7174 5.13302C16.8002 5.06043 16.8679 4.97215 16.9164 4.87326L17.7498 3.20636C17.8486 3.00852 17.8648 2.77954 17.7948 2.56978C17.7248 2.36002 17.5743 2.18667 17.3764 2.08786C17.1786 1.98905 16.9496 1.97288 16.7399 2.04291C16.5301 2.11293 16.3567 2.26341 16.2579 2.46125L15.4245 4.12816C15.3747 4.22606 15.3448 4.33283 15.3364 4.44233C15.328 4.55184 15.3414 4.66192 15.3757 4.76624C15.41 4.87057 15.4646 4.96709 15.5363 5.05025C15.6081 5.13341 15.6955 5.20157 15.7937 5.25082Z" fill="#030712"/>
<path d="M7.08585 4.87326C7.18466 5.07165 7.35823 5.22266 7.56838 5.29308C7.77853 5.36349 8.00804 5.34754 8.20643 5.24874C8.40482 5.14993 8.55583 4.97636 8.62625 4.76621C8.69666 4.55606 8.68071 4.32654 8.5819 4.12816L7.74845 2.46125C7.69952 2.36329 7.63178 2.27593 7.54909 2.20415C7.46641 2.13237 7.37039 2.07758 7.26653 2.04291C7.05677 1.97288 6.82779 1.98905 6.62995 2.08786C6.43211 2.18667 6.28163 2.36002 6.21161 2.56978C6.14158 2.77954 6.15775 3.00852 6.25656 3.20636L7.08585 4.87326Z" fill="#030712"/>
</svg>
