<svg width="24" height="24" viewBox="0 0 24 24" fill="none" xmlns="http://www.w3.org/2000/svg">
<path d="M18.9202 14.8332C18.2594 14.8337 17.6086 14.9952 17.024 15.3037C16.4395 15.6123 15.9387 16.0585 15.5649 16.6041L9.87606 14.0326C10.2801 13.0558 10.2817 11.9587 9.88043 10.9807L15.5614 8.39613C16.1154 9.19825 16.9382 9.77503 17.8806 10.0218C18.823 10.2686 19.8226 10.1691 20.698 9.74138C21.5734 9.31361 22.2666 8.58591 22.652 7.69028C23.0374 6.79465 23.0893 5.79041 22.7984 4.85972C22.5075 3.92903 21.8931 3.13354 21.0665 2.61755C20.2399 2.10155 19.256 1.89922 18.2931 2.04727C17.3303 2.19531 16.4524 2.68392 15.8186 3.42447C15.1848 4.16502 14.8371 5.10845 14.8386 6.08363C14.8423 6.31444 14.8657 6.54452 14.9085 6.77134L8.86922 9.5187C8.28918 8.97467 7.56304 8.6121 6.77999 8.47555C5.99695 8.33899 5.19111 8.43438 4.46148 8.75002C3.73185 9.06565 3.11021 9.58777 2.67293 10.2522C2.23564 10.9167 2.00176 11.6946 2.00001 12.4903C1.99826 13.286 2.22873 14.0649 2.66309 14.7312C3.09746 15.3976 3.71681 15.9225 4.44504 16.2413C5.17328 16.5601 5.97869 16.6591 6.76232 16.526C7.54596 16.3929 8.27369 16.0335 8.85611 15.492L14.9112 18.2289C14.8691 18.4555 14.846 18.6852 14.8421 18.9157C14.8419 19.7234 15.081 20.513 15.5292 21.1847C15.9773 21.8563 16.6143 22.3798 17.3597 22.689C18.1051 22.9982 18.9253 23.0791 19.7166 22.9216C20.5079 22.764 21.2348 22.3751 21.8053 21.804C22.3758 21.2329 22.7643 20.5052 22.9217 19.713C23.079 18.9208 22.9982 18.0997 22.6893 17.3535C22.3805 16.6073 21.8576 15.9696 21.1866 15.521C20.5157 15.0724 19.727 14.833 18.9202 14.8332ZM18.9202 3.75013C19.3812 3.74995 19.832 3.88666 20.2154 4.14297C20.5989 4.39927 20.8978 4.76365 21.0743 5.19003C21.2509 5.61641 21.2972 6.08562 21.2073 6.53834C21.1175 6.99105 20.8955 7.40692 20.5696 7.73336C20.2436 8.05979 19.8283 8.28212 19.3761 8.37223C18.9239 8.46234 18.4552 8.41618 18.0292 8.23959C17.6033 8.063 17.2392 7.76391 16.983 7.38015C16.7268 6.99638 16.5901 6.54519 16.5901 6.08363C16.5906 5.46504 16.8362 4.8719 17.273 4.43441C17.7099 3.99692 18.3023 3.75082 18.9202 3.75013ZM6.10214 14.8332C5.64109 14.8333 5.19034 14.6966 4.8069 14.4403C4.42346 14.184 4.12456 13.8196 3.948 13.3933C3.77144 12.9669 3.72516 12.4977 3.815 12.045C3.90484 11.5922 4.12678 11.1764 4.45273 10.8499C4.77868 10.5235 5.19402 10.3012 5.6462 10.2111C6.09839 10.121 6.56711 10.1671 6.99308 10.3437C7.41906 10.5203 7.78315 10.8194 8.03932 11.2032C8.29549 11.5869 8.43222 12.0381 8.43222 12.4997C8.43153 13.1182 8.18584 13.7112 7.74904 14.1486C7.31224 14.5861 6.71998 14.8322 6.10214 14.8332ZM18.9202 21.2492C18.4592 21.2492 18.0085 21.1124 17.6252 20.8559C17.2419 20.5995 16.9431 20.2351 16.7667 19.8087C16.5902 19.3823 16.5441 18.9131 16.634 18.4605C16.724 18.0078 16.946 17.592 17.2719 17.2657C17.5979 16.9393 18.0133 16.7171 18.4654 16.627C18.9176 16.537 19.3863 16.5832 19.8122 16.7598C20.2381 16.9365 20.6022 17.2355 20.8583 17.6193C21.1144 18.003 21.2511 18.4542 21.2511 18.9157C21.2507 19.5345 21.0049 20.1277 20.5679 20.5652C20.1309 21.0028 19.5382 21.2488 18.9202 21.2492Z" fill="#030712"/>
</svg>
