<svg width="24" height="24" viewBox="0 0 24 24" fill="none" xmlns="http://www.w3.org/2000/svg">
<path d="M3 20.9999L15.6 8.3999" stroke="#08261F" stroke-width="1.2" stroke-linecap="round" stroke-linejoin="round"/>
<path d="M4.32302 12.4771L5.70002 11.1001L7.07702 12.4771C7.66508 13.0675 7.99526 13.8668 7.99526 14.7001C7.99526 15.5334 7.66508 16.3327 7.07702 16.9231L5.70002 18.3001L4.32302 16.9231C3.73496 16.3327 3.40479 15.5334 3.40479 14.7001C3.40479 13.8668 3.73496 13.0675 4.32302 12.4771Z" stroke="#08261F" stroke-width="1.2" stroke-linecap="round" stroke-linejoin="round"/>
<path d="M7.92263 8.877L9.29963 7.5L10.6766 8.877C11.2647 9.46738 11.5949 10.2667 11.5949 11.1C11.5949 11.9333 11.2647 12.7326 10.6766 13.323L9.29963 14.7L7.92263 13.323C7.33457 12.7326 7.00439 11.9333 7.00439 11.1C7.00439 10.2667 7.33457 9.46738 7.92263 8.877Z" stroke="#08261F" stroke-width="1.2" stroke-linecap="round" stroke-linejoin="round"/>
<path d="M11.5232 5.2769L12.9002 3.8999L14.2772 5.2769C14.8653 5.86728 15.1955 6.66662 15.1955 7.4999C15.1955 8.33319 14.8653 9.13252 14.2772 9.7229L12.9002 11.0999L11.5232 9.7229C10.9352 9.13252 10.605 8.33319 10.605 7.4999C10.605 6.66662 10.9352 5.86728 11.5232 5.2769Z" stroke="#08261F" stroke-width="1.2" stroke-linecap="round" stroke-linejoin="round"/>
<path d="M19.1996 3H20.9996V4.8C20.9996 5.75478 20.6203 6.67045 19.9452 7.34558C19.2701 8.02072 18.3544 8.4 17.3996 8.4H15.5996V6.6C15.5996 5.64522 15.9789 4.72955 16.654 4.05442C17.3292 3.37928 18.2448 3 19.1996 3Z" stroke="#08261F" stroke-width="1.2" stroke-linecap="round" stroke-linejoin="round"/>
<path d="M11.5232 16.9231L12.9002 18.3001L11.5232 19.6771C10.9328 20.2652 10.1335 20.5954 9.3002 20.5954C8.46691 20.5954 7.66757 20.2652 7.0772 19.6771L5.7002 18.3001L7.0772 16.9231C7.66757 16.3351 8.46691 16.0049 9.3002 16.0049C10.1335 16.0049 10.9328 16.3351 11.5232 16.9231Z" stroke="#08261F" stroke-width="1.2" stroke-linecap="round" stroke-linejoin="round"/>
<path d="M15.1228 13.323L16.4998 14.7L15.1228 16.077C14.5324 16.6651 13.7331 16.9953 12.8998 16.9953C12.0665 16.9953 11.2672 16.6651 10.6768 16.077L9.2998 14.7L10.6768 13.323C11.2672 12.735 12.0665 12.4048 12.8998 12.4048C13.7331 12.4048 14.5324 12.735 15.1228 13.323Z" stroke="#08261F" stroke-width="1.2" stroke-linecap="round" stroke-linejoin="round"/>
<path d="M18.7234 9.72292L20.1004 11.0999L18.7234 12.4769C18.133 13.065 17.3337 13.3952 16.5004 13.3952C15.6671 13.3952 14.8678 13.065 14.2774 12.4769L12.9004 11.0999L14.2774 9.72292C14.8678 9.13486 15.6671 8.80469 16.5004 8.80469C17.3337 8.80469 18.133 9.13486 18.7234 9.72292Z" stroke="#08261F" stroke-width="1.2" stroke-linecap="round" stroke-linejoin="round"/>
</svg>
