<svg width="24" height="24" viewBox="0 0 24 24" fill="none" xmlns="http://www.w3.org/2000/svg">
<path d="M6.16592 22H17.8325C18.5347 21.9999 19.2256 21.8224 19.8409 21.4839C20.4562 21.1455 20.976 20.657 21.3521 20.064C21.7281 19.4709 21.9482 18.7925 21.9919 18.0916C22.0356 17.3908 21.9015 16.6902 21.6021 16.055L15.7776 4.41187C15.4437 3.69327 14.9119 3.08472 14.2446 2.65755C13.5772 2.23038 12.8018 2.00229 12.0094 2.00002C11.217 1.99774 10.4404 2.22138 9.77054 2.64471C9.10071 3.06804 8.56544 3.67353 8.22747 4.3902L2.39212 16.06L2.38545 16.0817C2.0916 16.7166 1.96231 17.4152 2.00949 18.1132C2.05667 18.8112 2.2788 19.4861 2.65541 20.0757C3.03202 20.6653 3.551 21.1506 4.1645 21.4869C4.778 21.8232 5.46629 21.9996 6.16592 22ZM9.00024 20.3329L11.2652 15.8C11.3289 15.6596 11.432 15.5406 11.5618 15.4575C11.6917 15.3744 11.8429 15.3306 11.9971 15.3315C12.1555 15.3316 12.3104 15.3781 12.4427 15.4652C12.575 15.5523 12.6789 15.6762 12.7415 15.8216L14.9981 20.3329H9.00024ZM3.89264 16.7886L9.72799 5.10873C9.92969 4.67452 10.2518 4.30734 10.656 4.0508C11.0603 3.79427 11.5297 3.65916 12.0085 3.66153C12.4873 3.6639 12.9553 3.80365 13.357 4.06417C13.7587 4.3247 14.0772 4.69505 14.2746 5.13123L20.0999 16.7786C20.2769 17.1596 20.3551 17.5791 20.3272 17.9983C20.2993 18.4174 20.1662 18.8229 19.9403 19.1771C19.7143 19.5312 19.4028 19.8228 19.0344 20.0248C18.666 20.2268 18.2526 20.3328 17.8325 20.3329H16.8621L14.2479 15.0981C14.05 14.6718 13.7348 14.3105 13.3392 14.0566C12.9436 13.8027 12.4839 13.6667 12.0138 13.6643C11.5438 13.6619 11.0827 13.7934 10.6846 14.0433C10.2865 14.2932 9.96768 14.6513 9.7655 15.0756L7.13543 20.3329H6.16592C5.7466 20.333 5.33398 20.2277 4.96602 20.0266C4.59806 19.8255 4.28656 19.5351 4.06019 19.1822C3.83381 18.8293 3.69982 18.4251 3.67055 18.0068C3.64127 17.5885 3.71764 17.1696 3.89264 16.7886Z" fill="#030712"/>
</svg>
