<svg width="24" height="24" viewBox="0 0 24 24" fill="none" xmlns="http://www.w3.org/2000/svg">
<path d="M18 3C17.2044 3 16.4413 3.31607 15.8787 3.87868C15.3161 4.44129 15 5.20435 15 6C15 6.19891 15.079 6.38968 15.2197 6.53033C15.3603 6.67098 15.5511 6.75 15.75 6.75C15.9489 6.75 16.1397 6.67098 16.2803 6.53033C16.421 6.38968 16.5 6.19891 16.5 6C16.5 5.60218 16.658 5.22064 16.9393 4.93934C17.2206 4.65804 17.6022 4.5 18 4.5C18.3978 4.5 18.7794 4.65804 19.0607 4.93934C19.342 5.22064 19.5 5.60218 19.5 6V14.2695C18.8547 13.7731 18.0641 13.5028 17.25 13.5C16.6359 13.5003 16.0313 13.6513 15.4892 13.94C14.9472 14.2286 14.4843 14.6459 14.1412 15.1553C13.863 14.8688 13.5302 14.6411 13.1624 14.4856C12.7946 14.3301 12.3993 14.25 12 14.25C11.6007 14.25 11.2054 14.3301 10.8376 14.4856C10.4698 14.6411 10.137 14.8688 9.85875 15.1553C9.51571 14.6459 9.05284 14.2286 8.51079 13.94C7.96874 13.6513 7.3641 13.5003 6.75 13.5C5.9359 13.5028 5.14529 13.7731 4.5 14.2695V6C4.5 5.60218 4.65804 5.22064 4.93934 4.93934C5.22064 4.65804 5.60218 4.5 6 4.5C6.39782 4.5 6.77936 4.65804 7.06066 4.93934C7.34196 5.22064 7.5 5.60218 7.5 6C7.5 6.19891 7.57902 6.38968 7.71967 6.53033C7.86032 6.67098 8.05109 6.75 8.25 6.75C8.44891 6.75 8.63968 6.67098 8.78033 6.53033C8.92098 6.38968 9 6.19891 9 6C9 5.20435 8.68393 4.44129 8.12132 3.87868C7.55871 3.31607 6.79565 3 6 3C5.20435 3 4.44129 3.31607 3.87868 3.87868C3.31607 4.44129 3 5.20435 3 6L3 17.25C3 18.2446 3.39509 19.1984 4.09835 19.9016C4.80161 20.6049 5.75544 21 6.75 21C7.74456 21 8.69839 20.6049 9.40165 19.9016C10.1049 19.1984 10.5 18.2446 10.5 17.25C10.5 16.8522 10.658 16.4706 10.9393 16.1893C11.2206 15.908 11.6022 15.75 12 15.75C12.3978 15.75 12.7794 15.908 13.0607 16.1893C13.342 16.4706 13.5 16.8522 13.5 17.25C13.5 18.2446 13.8951 19.1984 14.5983 19.9016C15.3016 20.6049 16.2554 21 17.25 21C18.2446 21 19.1984 20.6049 19.9016 19.9016C20.6049 19.1984 21 18.2446 21 17.25V6C21 5.20435 20.6839 4.44129 20.1213 3.87868C19.5587 3.31607 18.7956 3 18 3V3ZM6.75 19.5C6.30499 19.5 5.86998 19.368 5.49997 19.1208C5.12996 18.8736 4.84157 18.5222 4.67127 18.111C4.50097 17.6999 4.45642 17.2475 4.54323 16.811C4.63005 16.3746 4.84434 15.9737 5.15901 15.659C5.47368 15.3443 5.87459 15.13 6.31105 15.0432C6.7475 14.9564 7.1999 15.001 7.61104 15.1713C8.02217 15.3416 8.37357 15.63 8.62081 16C8.86804 16.37 9 16.805 9 17.25C9 17.8467 8.76295 18.419 8.34099 18.841C7.91903 19.2629 7.34674 19.5 6.75 19.5ZM17.25 19.5C16.805 19.5 16.37 19.368 16 19.1208C15.63 18.8736 15.3416 18.5222 15.1713 18.111C15.001 17.6999 14.9564 17.2475 15.0432 16.811C15.13 16.3746 15.3443 15.9737 15.659 15.659C15.9737 15.3443 16.3746 15.13 16.811 15.0432C17.2475 14.9564 17.6999 15.001 18.111 15.1713C18.5222 15.3416 18.8736 15.63 19.1208 16C19.368 16.37 19.5 16.805 19.5 17.25C19.5 17.8467 19.2629 18.419 18.841 18.841C18.419 19.2629 17.8467 19.5 17.25 19.5Z" fill="#08261F"/>
</svg>
