<svg width="24" height="24" viewBox="0 0 24 24" fill="none" xmlns="http://www.w3.org/2000/svg">
<path d="M12 20C15.3137 20 18 17.3137 18 14C18 12.4633 17.5 11.5 16.4722 10L12.5 4C12 6.5 11 7.5 10 9.5L8.5 7C8 8.5 6 12.0743 6 14C6 17.3137 8.68629 20 12 20ZM12 20C13.6569 20 15 18.5673 15 16.8C15 15.9804 14.7111 15.2328 14.2361 14.6667L12 12L9.76389 14.6667C9.28885 15.2328 9 15.9804 9 16.8C9 18.5673 10.3431 20 12 20Z" stroke="#08261F" stroke-width="1.5" stroke-linecap="round" stroke-linejoin="round"/>
</svg>
