<svg width="24" height="24" viewBox="0 0 24 24" fill="none" xmlns="http://www.w3.org/2000/svg">
<path d="M18.6532 8.66664C17.7698 8.66664 16.9225 8.31545 16.2978 7.69033C15.6731 7.06521 15.3221 6.21737 15.3221 5.33332C15.3221 4.44927 15.6731 3.60143 16.2978 2.97631C16.9225 2.35119 17.7698 2 18.6532 2C19.5367 2 20.3839 2.35119 21.0086 2.97631C21.6333 3.60143 21.9843 4.44927 21.9843 5.33332C21.9843 6.21737 21.6333 7.06521 21.0086 7.69033C20.3839 8.31545 19.5367 8.66664 18.6532 8.66664ZM18.6532 3.66666C18.2115 3.66666 17.7879 3.84225 17.4755 4.15481C17.1632 4.46737 16.9877 4.89129 16.9877 5.33332C16.9877 5.77535 17.1632 6.19927 17.4755 6.51183C17.7879 6.82439 18.2115 6.99998 18.6532 6.99998C19.0949 6.99998 19.5186 6.82439 19.8309 6.51183C20.1433 6.19927 20.3188 5.77535 20.3188 5.33332C20.3188 4.89129 20.1433 4.46737 19.8309 4.15481C19.5186 3.84225 19.0949 3.66666 18.6532 3.66666ZM19.8624 21.9999H12.4816C12.1082 22.0032 11.7406 21.9079 11.4158 21.7235C11.0911 21.5391 10.8207 21.2723 10.632 20.9499C10.447 20.6392 10.3474 20.2852 10.3432 19.9236C10.3389 19.562 10.4302 19.2057 10.6078 18.8908L14.302 12.2583C14.4922 11.9296 14.7655 11.6567 15.0943 11.4669C15.4232 11.2772 15.7961 11.1774 16.1757 11.1774C16.5553 11.1774 16.9283 11.2772 17.2571 11.4669C17.586 11.6567 17.8592 11.9296 18.0495 12.2583L21.7345 18.8858C21.9124 19.2012 22.004 19.558 21.9999 19.9201C21.9958 20.2823 21.8962 20.637 21.7111 20.9483C21.5225 21.2707 21.2523 21.5376 20.9277 21.7222C20.6032 21.9069 20.2357 22.0026 19.8624 21.9999ZM16.1741 12.8333C16.0898 12.8313 16.0067 12.8522 15.9333 12.8937C15.86 12.9352 15.7993 12.9958 15.7577 13.0691L12.0635 19.7016C12.0278 19.7631 12.0094 19.8332 12.0103 19.9044C12.0112 19.9755 12.0313 20.0451 12.0685 20.1058C12.1112 20.1775 12.1723 20.2365 12.2456 20.2766C12.3188 20.3166 12.4015 20.3362 12.4849 20.3333H19.8657C19.9493 20.3357 20.0319 20.3158 20.1052 20.2755C20.1784 20.2352 20.2395 20.176 20.2821 20.1041C20.3187 20.0424 20.338 19.972 20.338 19.9003C20.338 19.8286 20.3187 19.7583 20.2821 19.6966L16.5913 13.07C16.5498 12.9963 16.4891 12.9353 16.4155 12.8936C16.342 12.8519 16.2585 12.831 16.1741 12.8333ZM8.65999 21.1666C8.65999 20.9456 8.57225 20.7336 8.41608 20.5773C8.2599 20.4211 8.04808 20.3333 7.82722 20.3333H4.78761C4.59286 20.3331 4.40148 20.2824 4.23225 20.1859C4.06303 20.0894 3.92177 19.9506 3.82233 19.783C3.7229 19.6155 3.66871 19.4249 3.66507 19.2301C3.66144 19.0352 3.70849 18.8428 3.80161 18.6716L9.34119 8.42164C9.43594 8.24298 9.57777 8.0937 9.75129 7.98998C9.92482 7.88627 10.1234 7.83208 10.3255 7.83331C10.5278 7.83165 10.7267 7.88565 10.9005 7.9894C11.0742 8.09315 11.2161 8.24267 11.3107 8.42164L12.3325 10.3108C12.3846 10.4071 12.4551 10.4922 12.54 10.5612C12.6249 10.6303 12.7226 10.6819 12.8274 10.7132C12.9323 10.7444 13.0423 10.7547 13.1511 10.7434C13.26 10.7322 13.3655 10.6996 13.4617 10.6475C13.558 10.5954 13.643 10.5248 13.712 10.4398C13.781 10.3549 13.8326 10.2571 13.8638 10.1522C13.8951 10.0473 13.9054 9.9372 13.8941 9.8283C13.8828 9.71939 13.8502 9.61377 13.7982 9.51747L12.7772 7.62914C12.5386 7.18685 12.1848 6.81738 11.7534 6.55988C11.322 6.30237 10.8291 6.16642 10.3268 6.16642C9.82447 6.16642 9.33151 6.30237 8.90013 6.55988C8.46875 6.81738 8.115 7.18685 7.87635 7.62914L2.33594 17.8791C2.10618 18.3043 1.99063 18.7818 2.00059 19.265C2.01056 19.7483 2.14569 20.2206 2.39278 20.6359C2.63986 21.0512 2.99044 21.3953 3.41022 21.6343C3.83 21.8734 4.3046 21.9994 4.78761 21.9999H7.82722C8.04808 21.9999 8.2599 21.9121 8.41608 21.7558C8.57225 21.5996 8.65999 21.3876 8.65999 21.1666Z" fill="#08261F"/>
</svg>
