<svg width="24" height="24" viewBox="0 0 24 24" fill="none" xmlns="http://www.w3.org/2000/svg">
<path d="M11.3589 12.6411L8.03543 9.31759L5.37664 11.9764C3.54112 13.8119 3.54112 16.7879 5.37664 18.6234C7.21215 20.4589 10.1881 20.4589 12.0236 18.6234L14.6824 15.9646L11.3589 12.6411ZM11.3589 12.6411L8.70013 15.2999M11.3589 12.6411L16.0059 7.9941M16.0118 7.98819L16.0059 7.9941M16.0059 7.9941L16.5858 8.57398C17.3668 9.35503 18.6332 9.35503 19.4142 8.57398L20 7.98819L16.0118 4L15.426 4.58579C14.645 5.36684 14.645 6.63316 15.426 7.41421L16 7.98819" stroke="#08261F" stroke-width="1.5" stroke-linecap="round" stroke-linejoin="round"/>
</svg>
