<svg width="24" height="24" viewBox="0 0 24 24" fill="none" xmlns="http://www.w3.org/2000/svg">
<path d="M20.9364 13.6482L18.9035 14.1868C18.6065 14.2662 18.3289 14.4059 18.0878 14.597L15.9118 13.328C16.2179 12.4725 16.2179 11.537 15.9118 10.6815L18.0878 9.4125C18.3289 9.60365 18.6065 9.74327 18.9035 9.82272C18.9035 9.82272 21.0794 10.3889 21.1485 10.3889C21.3479 10.3856 21.5396 10.3104 21.6884 10.1772C21.8373 10.0439 21.9334 9.86146 21.9592 9.66307C21.985 9.46468 21.9388 9.26359 21.829 9.09652C21.7193 8.92944 21.5533 8.8075 21.3613 8.75297L19.3292 8.21351C19.177 8.173 19.0471 8.07361 18.9679 7.93714C18.8887 7.80068 18.8667 7.6383 18.9068 7.48561L19.4448 5.44782C19.4727 5.34194 19.4796 5.23158 19.465 5.12303C19.4504 5.01448 19.4147 4.90987 19.3598 4.81518C19.3049 4.72049 19.2319 4.63757 19.1451 4.57116C19.0582 4.50474 18.9592 4.45613 18.8536 4.4281C18.748 4.40007 18.6379 4.39317 18.5297 4.40779C18.4214 4.42241 18.3171 4.45827 18.2227 4.51332C18.1283 4.56837 18.0456 4.64153 17.9794 4.72862C17.9131 4.81572 17.8646 4.91504 17.8367 5.02092L17.2996 7.05871C17.2205 7.35781 17.2041 7.6701 17.2513 7.97588L15.0762 9.2399C14.4861 8.56704 13.6948 8.10371 12.8204 7.91918V5.41781C13.1068 5.30576 13.367 5.13542 13.5845 4.91753L15.0712 3.42671C15.2277 3.27037 15.3158 3.05811 15.3162 2.83661C15.3166 2.61512 15.2292 2.40255 15.0733 2.24565C14.9174 2.08875 14.7057 2.00039 14.4848 2C14.2639 1.99961 14.052 2.08722 13.8955 2.24357L12.4088 3.73438C12.2971 3.84528 12.1462 3.90749 11.9889 3.90749C11.8317 3.90749 11.6808 3.84528 11.569 3.73438L10.0824 2.24357C9.92554 2.09168 9.7155 2.00764 9.49749 2.00954C9.27948 2.01144 9.07094 2.09913 8.91678 2.25372C8.76261 2.40831 8.67517 2.61744 8.67327 2.83606C8.67138 3.05467 8.75519 3.26529 8.90665 3.42255L10.3933 4.91753C10.6108 5.13542 10.871 5.30576 11.1575 5.41781V7.91918C10.2831 8.10371 9.49172 8.56704 8.90166 9.2399L6.72652 7.97087C6.77378 7.66509 6.75736 7.35281 6.67829 7.0537L6.14116 5.01759C6.11321 4.91171 6.06473 4.81238 5.9985 4.72529C5.93227 4.63819 5.84958 4.56503 5.75515 4.50998C5.66072 4.45493 5.55641 4.41907 5.44816 4.40445C5.33991 4.38983 5.22985 4.39673 5.12427 4.42476C5.01868 4.45279 4.91963 4.5014 4.83278 4.56782C4.74593 4.63424 4.67297 4.71716 4.61807 4.81185C4.56318 4.90654 4.52742 5.01114 4.51283 5.11969C4.49825 5.22824 4.50514 5.33861 4.53309 5.44449L5.07105 7.48227C5.11112 7.63496 5.08914 7.79735 5.00996 7.93381C4.93077 8.07027 4.80084 8.16966 4.64866 8.21017L2.61654 8.75297C2.42196 8.80518 2.2529 8.92645 2.14076 9.09424C2.02863 9.26203 1.98105 9.46494 2.00686 9.66526C2.03266 9.86557 2.13011 10.0497 2.28109 10.1834C2.43207 10.3171 2.62631 10.3913 2.82773 10.3922C2.89841 10.3922 5.07272 9.82606 5.07272 9.82606C5.36969 9.7466 5.64728 9.60699 5.88839 9.41583L8.06436 10.6849C7.75834 11.5403 7.75834 12.4759 8.06436 13.3313L5.89006 14.597C5.64895 14.4059 5.37135 14.2662 5.07438 14.1868L3.04142 13.6482C2.83439 13.6078 2.6198 13.6478 2.44109 13.7601C2.26238 13.8724 2.13291 14.0487 2.0789 14.2531C2.02489 14.4575 2.05038 14.6749 2.1502 14.8612C2.25003 15.0475 2.41672 15.1888 2.61654 15.2565L4.64866 15.796C4.80084 15.8365 4.93077 15.9359 5.00996 16.0724C5.08914 16.2088 5.11112 16.3712 5.07105 16.5239L4.53309 18.5617C4.50514 18.6676 4.49825 18.7779 4.51283 18.8865C4.52742 18.995 4.56318 19.0996 4.61807 19.1943C4.67297 19.289 4.74593 19.3719 4.83278 19.4384C4.91963 19.5048 5.01868 19.5534 5.12427 19.5814C5.22985 19.6094 5.33991 19.6163 5.44816 19.6017C5.55641 19.5871 5.66072 19.5512 5.75515 19.4962C5.84958 19.4411 5.93227 19.368 5.9985 19.2809C6.06473 19.1938 6.11321 19.0945 6.14116 18.9886L6.67829 16.9508C6.75736 16.6517 6.77378 16.3394 6.72652 16.0336L8.90166 14.7646C9.49099 15.4393 10.2824 15.9044 11.1575 16.0903V18.5917C10.8712 18.7041 10.6111 18.8744 10.3933 19.092L8.90665 20.587C8.75519 20.7442 8.67138 20.9548 8.67327 21.1735C8.67517 21.3921 8.76261 21.6012 8.91678 21.7558C9.07094 21.9104 9.27948 21.9981 9.49749 22C9.7155 22.0019 9.92554 21.9178 10.0824 21.7659L11.5732 20.2751C11.685 20.1642 11.8358 20.102 11.9931 20.102C12.1503 20.102 12.3012 20.1642 12.413 20.2751L13.8997 21.7659C14.0565 21.9178 14.2665 22.0019 14.4845 22C14.7025 21.9981 14.9111 21.9104 15.0652 21.7558C15.2194 21.6012 15.3068 21.3921 15.3087 21.1735C15.3106 20.9548 15.2268 20.7442 15.0754 20.587L13.5887 19.0961C13.3701 18.8765 13.1085 18.7048 12.8204 18.5917V16.0903C13.6947 15.906 14.486 15.443 15.0762 14.7704L17.2513 16.0395C17.2041 16.3453 17.2205 16.6575 17.2996 16.9566L17.8367 18.9944C17.8931 19.2083 18.032 19.3909 18.2227 19.502C18.4134 19.6132 18.6403 19.6439 18.8536 19.5872C19.0668 19.5306 19.2489 19.3914 19.3598 19.2002C19.4706 19.0089 19.5012 18.7814 19.4448 18.5675L18.9068 16.5297C18.8667 16.3771 18.8887 16.2147 18.9679 16.0782C19.0471 15.9417 19.177 15.8424 19.3292 15.8018L21.3613 15.2624C21.4692 15.2366 21.5708 15.1894 21.6603 15.1237C21.7497 15.0579 21.8251 14.9748 21.882 14.8794C21.939 14.784 21.9763 14.6781 21.9918 14.568C22.0073 14.4578 22.0007 14.3457 21.9724 14.2382C21.944 14.1307 21.8945 14.0299 21.8268 13.9419C21.759 13.8539 21.6744 13.7803 21.5779 13.7256C21.4813 13.6708 21.3749 13.636 21.2647 13.6231C21.1545 13.6102 21.0429 13.6196 20.9364 13.6507V13.6482ZM11.9889 14.5061C11.3274 14.5061 10.6929 14.2426 10.2251 13.7735C9.75731 13.3044 9.4945 12.6682 9.4945 12.0048C9.4945 11.3413 9.75731 10.7051 10.2251 10.236C10.6929 9.76692 11.3274 9.50338 11.9889 9.50338C12.6505 9.50338 13.285 9.76692 13.7528 10.236C14.2205 10.7051 14.4834 11.3413 14.4834 12.0048C14.4834 12.6682 14.2205 13.3044 13.7528 13.7735C13.285 14.2426 12.6505 14.5061 11.9889 14.5061Z" fill="#030712"/>
</svg>
