<svg width="24" height="24" viewBox="0 0 24 24" fill="none" xmlns="http://www.w3.org/2000/svg">
<path d="M7.83163 12.8413H2.0075V11.1734H6.2296C6.29607 10.7072 6.41946 10.251 6.59699 9.81489L2.95222 7.68917L3.78948 6.24811L7.43841 8.37551C7.7193 8.02186 8.03961 7.7015 8.39314 7.42064L6.27459 3.7738L7.71333 2.93485L9.83105 6.58669C10.2594 6.414 10.7069 6.29361 11.164 6.2281V2H12.8302V6.22893C13.2905 6.29548 13.7411 6.41728 14.1723 6.5917L16.295 2.93485L17.7337 3.7738L15.6102 7.43065C15.962 7.71023 16.2806 8.02921 16.5599 8.38134L20.218 6.24811L21.0553 7.68917L17.3997 9.82156C17.5756 10.2557 17.6981 10.7096 17.7646 11.1734H21.9867V12.8413H16.1625V12.0073C15.9834 6.49496 8.00908 6.5033 7.83163 12.0073V12.8413ZM19.4857 20.3468C19.0438 20.3468 18.62 20.1711 18.3076 19.8583C17.9951 19.5455 17.8196 19.1212 17.8196 18.6789H16.1625C16.1625 19.1212 15.987 19.5455 15.6745 19.8583C15.3621 20.1711 14.9383 20.3468 14.4964 20.3468C14.0545 20.3468 13.6307 20.1711 13.3182 19.8583C13.0057 19.5455 12.8302 19.1212 12.8302 18.6789H11.164C11.164 19.1212 10.9885 19.5455 10.676 19.8583C10.3635 20.1711 9.93971 20.3468 9.49781 20.3468C9.05591 20.3468 8.63211 20.1711 8.31965 19.8583C8.00718 19.5455 7.83163 19.1212 7.83163 18.6789H6.16545C6.16108 19.0157 6.0553 19.3433 5.86193 19.619C5.66857 19.8946 5.39662 20.1055 5.08164 20.2239C4.76666 20.3424 4.4233 20.363 4.09645 20.283C3.7696 20.203 3.47447 20.0261 3.24964 19.7755L2 20.8738C2.31383 21.2272 2.69871 21.5102 3.12942 21.7043C3.56014 21.8984 4.02696 21.9991 4.4993 22C4.97164 22.0009 5.43883 21.9018 5.87025 21.7093C6.30167 21.5168 6.68759 21.2352 7.00271 20.883C7.3178 21.2341 7.70316 21.5148 8.13376 21.707C8.56435 21.8992 9.03052 21.9985 9.50198 21.9985C9.97343 21.9985 10.4396 21.8992 10.8702 21.707C11.3008 21.5148 11.6862 21.2341 12.0013 20.883C12.3163 21.2341 12.7017 21.5148 13.1323 21.707C13.5629 21.8992 14.0291 21.9985 14.5005 21.9985C14.972 21.9985 15.4382 21.8992 15.8687 21.707C16.2993 21.5148 16.6847 21.2341 16.9998 20.883C17.3149 21.2346 17.7006 21.5156 18.1316 21.7077C18.5627 21.8998 19.0294 21.9986 19.5013 21.9977C19.9732 21.9967 20.4395 21.896 20.8698 21.7022C21.3001 21.5084 21.6847 21.2259 21.9983 20.873L20.7437 19.7764C20.5877 19.9559 20.3949 20.0998 20.1784 20.1982C19.9619 20.2967 19.7268 20.3473 19.4891 20.3468H19.4857ZM4.5051 17.8449C4.97815 17.8452 5.44582 17.7444 5.87682 17.5493C6.30783 17.3541 6.69225 17.0691 7.00437 16.7133C7.31946 17.0643 7.70483 17.3451 8.13542 17.5373C8.56601 17.7295 9.03219 17.8288 9.50364 17.8288C9.9751 17.8288 10.4413 17.7295 10.8719 17.5373C11.3025 17.3451 11.6878 17.0643 12.0029 16.7133C12.318 17.0643 12.7034 17.3451 13.134 17.5373C13.5646 17.7295 14.0307 17.8288 14.5022 17.8288C14.9736 17.8288 15.4398 17.7295 15.8704 17.5373C16.301 17.3451 16.6864 17.0643 17.0015 16.7133C17.3165 17.0649 17.7022 17.3459 18.1333 17.538C18.5644 17.7301 19.0311 17.8289 19.503 17.8279C19.9748 17.827 20.4412 17.7263 20.8715 17.5325C21.3018 17.3387 21.6863 17.0561 22 16.7033L20.7454 15.6066C20.5205 15.8576 20.2253 16.0347 19.8982 16.1149C19.5711 16.195 19.2275 16.1745 18.9123 16.0559C18.5971 15.9373 18.325 15.7261 18.1317 15.4502C17.9383 15.1742 17.8327 14.8462 17.8287 14.5092H16.1625C16.1625 14.9515 15.987 15.3758 15.6745 15.6885C15.3621 16.0013 14.9383 16.1771 14.4964 16.1771C14.0545 16.1771 13.6307 16.0013 13.3182 15.6885C13.0057 15.3758 12.8302 14.9515 12.8302 14.5092H11.164C11.164 14.9515 10.9885 15.3758 10.676 15.6885C10.3635 16.0013 9.93971 16.1771 9.49781 16.1771C9.05591 16.1771 8.63211 16.0013 8.31965 15.6885C8.00718 15.3758 7.83163 14.9515 7.83163 14.5092H6.16545C6.16108 14.846 6.0553 15.1736 5.86193 15.4493C5.66857 15.7249 5.39662 15.9357 5.08164 16.0542C4.76666 16.1727 4.4233 16.1932 4.09645 16.1132C3.7696 16.0332 3.47447 15.8564 3.24964 15.6058L2 16.7041C2.31207 17.0622 2.69708 17.3492 3.12916 17.546C3.56125 17.7428 4.0304 17.8447 4.5051 17.8449Z" fill="#08261F"/>
</svg>
