<svg width="24" height="24" viewBox="0 0 24 24" fill="none" xmlns="http://www.w3.org/2000/svg">
<path d="M12.8571 14.3891V8.96985C12.8571 8.73743 12.7668 8.51453 12.6061 8.35018C12.4453 8.18584 12.2273 8.09351 12 8.09351C11.7727 8.09351 11.5547 8.18584 11.3939 8.35018C11.2332 8.51453 11.1429 8.73743 11.1429 8.96985V14.3891C10.5724 14.5958 10.0917 15.0019 9.78578 15.5358C9.47983 16.0697 9.36827 16.697 9.47083 17.3068C9.57338 17.9166 9.88345 18.4698 10.3462 18.8685C10.809 19.2673 11.3948 19.486 12 19.486C12.6052 19.486 13.191 19.2673 13.6538 18.8685C14.1166 18.4698 14.4266 17.9166 14.5292 17.3068C14.6317 16.697 14.5202 16.0697 14.2142 15.5358C13.9083 15.0019 13.4276 14.5958 12.8571 14.3891ZM16.2857 12.5725V6.34083C16.1049 0.549113 7.89343 0.557001 7.71429 6.34083V12.5725C6.88743 13.4353 6.32812 14.5285 6.1065 15.715C5.88489 16.9015 6.01082 18.1284 6.46851 19.242C6.92621 20.3557 7.69529 21.3063 8.67932 21.9749C9.66335 22.6434 10.8185 23 12 23C13.1815 23 14.3367 22.6434 15.3207 21.9749C16.3047 21.3063 17.0738 20.3557 17.5315 19.242C17.9892 18.1284 18.1151 16.9015 17.8935 15.715C17.6719 14.5285 17.1126 13.4353 16.2857 12.5725ZM12 21.2386C11.1373 21.2287 10.2975 20.9538 9.58959 20.4496C8.8817 19.9453 8.33848 19.2351 8.0305 18.4112C7.72253 17.5872 7.66402 16.6876 7.8626 15.8293C8.06117 14.9709 8.50764 14.1934 9.144 13.5978C9.23354 13.5156 9.30515 13.4151 9.35418 13.3028C9.4032 13.1904 9.42855 13.0688 9.42857 12.9458V6.34083C9.42857 5.64357 9.69949 4.97487 10.1817 4.48184C10.664 3.9888 11.318 3.71182 12 3.71182C12.682 3.71182 13.336 3.9888 13.8183 4.48184C14.3005 4.97487 14.5714 5.64357 14.5714 6.34083V12.9458C14.5714 13.0688 14.5968 13.1904 14.6458 13.3028C14.6949 13.4151 14.7665 13.5156 14.856 13.5978C15.4924 14.1934 15.9388 14.9709 16.1374 15.8293C16.336 16.6876 16.2775 17.5872 15.9695 18.4112C15.6615 19.2351 15.1183 19.9453 14.4104 20.4496C13.7025 20.9538 12.8627 21.2287 12 21.2386Z" fill="#030712"/>
</svg>
