<svg width="24" height="24" viewBox="0 0 24 24" fill="none" xmlns="http://www.w3.org/2000/svg">
<path d="M19.5564 16.4074C19.5389 16.3823 18.2585 14.8924 18.2585 14.8924C18.7237 14.5492 19.0374 14.0383 19.1332 13.4677C19.229 12.897 19.0995 12.3115 18.772 11.8348C18.7511 11.8048 17.2007 10.0894 17.2007 10.0894C17.5885 9.89355 17.9047 9.58011 18.1043 9.19375C18.2759 8.8628 18.353 8.49085 18.3271 8.11884C18.3013 7.74682 18.1734 7.38917 17.9576 7.08525C17.9401 7.05854 14.0705 2.67293 14.0705 2.67293C13.8675 2.46024 13.6236 2.29095 13.3534 2.17529C13.0833 2.05963 12.7926 2 12.4988 2C12.205 2 11.9142 2.05963 11.6441 2.17529C11.3739 2.29095 11.13 2.46024 10.927 2.67293C10.927 2.67293 7.05662 7.05854 7.03911 7.08358C6.8233 7.3875 6.69542 7.74515 6.66953 8.11717C6.64364 8.48918 6.72076 8.86113 6.8924 9.19208C7.09193 9.57844 7.40816 9.89188 7.79602 10.0877C7.79602 10.0877 6.24636 11.8031 6.22469 11.8331C5.89716 12.3098 5.76762 12.8954 5.86345 13.466C5.95928 14.0366 6.27297 14.5475 6.73818 14.8907C6.73818 14.8907 5.45778 16.3807 5.44027 16.4074C5.18223 16.7831 5.03153 17.2222 5.00443 17.6774C4.97733 18.1326 5.07486 18.5865 5.2865 18.9902C5.49814 19.394 5.81585 19.7322 6.20536 19.9684C6.59487 20.2046 7.04139 20.3298 7.49676 20.3306H11.6647V21.1653C11.6647 21.3867 11.7526 21.599 11.9089 21.7555C12.0652 21.9121 12.2773 22 12.4983 22C12.7194 22 12.9314 21.9121 13.0878 21.7555C13.2441 21.599 13.3319 21.3867 13.3319 21.1653V20.3306H17.4999C17.9556 20.3304 18.4025 20.2057 18.7925 19.9697C19.1825 19.7337 19.5007 19.3956 19.7127 18.9917C19.9248 18.5879 20.0226 18.1337 19.9956 17.6782C19.9687 17.2228 19.8179 16.7833 19.5597 16.4074H19.5564ZM18.2351 18.2162C18.1656 18.3511 18.06 18.4641 17.9303 18.5426C17.8005 18.6212 17.6515 18.6622 17.4999 18.6611H7.49676C7.34794 18.6613 7.20178 18.6216 7.07346 18.5462C6.94514 18.4707 6.83933 18.3622 6.76703 18.232C6.69472 18.1017 6.65855 17.9545 6.66227 17.8055C6.666 17.6566 6.70948 17.5113 6.7882 17.3848L8.56793 15.3223H13.3319C13.553 15.3223 13.765 15.2343 13.9214 15.0778C14.0777 14.9212 14.1655 14.7089 14.1655 14.4875C14.1655 14.2662 14.0777 14.0538 13.9214 13.8973C13.765 13.7408 13.553 13.6528 13.3319 13.6528H8.05527C7.9577 13.6528 7.86185 13.6271 7.77734 13.5783C7.69284 13.5295 7.62265 13.4593 7.57382 13.3747C7.525 13.2901 7.49926 13.1941 7.4992 13.0964C7.49913 12.9987 7.52474 12.9027 7.57345 12.8181L9.8425 10.3139H12.4983C12.7194 10.3139 12.9314 10.226 13.0878 10.0695C13.2441 9.91292 13.3319 9.70061 13.3319 9.47923C13.3319 9.25785 13.2441 9.04553 13.0878 8.88899C12.9314 8.73245 12.7194 8.64451 12.4983 8.64451H8.74715C8.67007 8.64724 8.5938 8.62798 8.52723 8.58896C8.46067 8.54995 8.40655 8.49278 8.3712 8.42414C8.34171 8.37042 8.32695 8.30984 8.32841 8.24856C8.32987 8.18728 8.34751 8.12748 8.37953 8.07523L12.1741 3.77727C12.2138 3.7306 12.2632 3.69312 12.3188 3.66742C12.3745 3.64172 12.435 3.62841 12.4963 3.62841C12.5575 3.62841 12.618 3.64172 12.6737 3.66742C12.7293 3.69312 12.7787 3.7306 12.8184 3.77727L16.6113 8.0744C16.6435 8.12654 16.6614 8.18631 16.663 8.24761C16.6646 8.30891 16.6499 8.36954 16.6205 8.42331C16.5856 8.49132 16.5323 8.54813 16.4667 8.58725C16.4011 8.62637 16.3258 8.64621 16.2495 8.64451H15.526C15.3655 8.64673 15.2091 8.695 15.0752 8.78359C14.9413 8.87218 14.8356 8.99737 14.7707 9.1443C14.7057 9.29124 14.6843 9.45375 14.7088 9.61254C14.7333 9.77133 14.8028 9.91974 14.9091 10.0402L17.4232 12.8181C17.4719 12.9027 17.4975 12.9987 17.4975 13.0964C17.4974 13.1941 17.4717 13.2901 17.4228 13.3747C17.374 13.4593 17.3038 13.5295 17.2193 13.5783C17.1348 13.6271 17.039 13.6528 16.9414 13.6528H16.8105C16.652 13.6552 16.4973 13.7026 16.3645 13.7894C16.2317 13.8762 16.1262 13.9989 16.0601 14.1433C15.9941 14.2877 15.9703 14.4478 15.9914 14.6052C16.0125 14.7626 16.0777 14.9108 16.1795 15.0326L18.2051 17.3848C18.2837 17.5078 18.3279 17.6497 18.3332 17.7956C18.3385 17.9415 18.3046 18.0862 18.2351 18.2146V18.2162Z" fill="#08261F"/>
</svg>
