<svg width="24" height="24" viewBox="0 0 24 24" fill="none" xmlns="http://www.w3.org/2000/svg">
<path d="M10.8384 9.99999V10.2C11.487 10.4522 12.0275 10.9266 12.3656 11.5405C12.7037 12.1543 12.818 12.8687 12.6885 13.5591C12.559 14.2494 12.194 14.8719 11.6571 15.318C11.1201 15.764 10.4454 16.0054 9.75047 16H5.89328C5.20667 15.9827 4.54725 15.7251 4.02749 15.2712C3.50774 14.8172 3.15984 14.195 3.04315 13.5106C2.92645 12.8263 3.04818 12.1222 3.38758 11.5185C3.72697 10.9147 4.26301 10.4487 4.90425 10.2V9.99999C4.90425 9.20434 5.21686 8.44128 5.77329 7.87868C6.32972 7.31607 7.08441 7 7.87133 7C8.65824 7 9.41293 7.31607 9.96936 7.87868C10.5258 8.44128 10.8384 9.20434 10.8384 9.99999Z" stroke="#08261F" stroke-width="1.6" stroke-linecap="round" stroke-linejoin="round"/>
<path d="M7.87109 15.9998V21.9997" stroke="#08261F" stroke-width="1.6" stroke-linecap="round" stroke-linejoin="round"/>
<path d="M13.8057 19V22" stroke="#08261F" stroke-width="1.6" stroke-linecap="round" stroke-linejoin="round"/>
<path d="M12.816 18.9999H21.0249C21.2185 18.9972 21.407 18.9371 21.5671 18.827C21.7272 18.7169 21.8518 18.5618 21.9256 18.3808C21.9993 18.1998 22.0188 18.0009 21.9818 17.8088C21.9448 17.6166 21.8528 17.4397 21.7172 17.2999L18.7502 14H19.0469C19.2404 13.9972 19.429 13.9371 19.5891 13.827C19.7492 13.717 19.8738 13.5618 19.9475 13.3808C20.0212 13.1998 20.0408 13.0009 20.0037 12.8088C19.9667 12.6167 19.8747 12.4397 19.7392 12.3L16.7721 8.99998H16.9699C17.1719 9.0184 17.3747 8.97358 17.5506 8.8716C17.7266 8.76961 17.8673 8.61538 17.9537 8.42982C18.04 8.24426 18.0679 8.03634 18.0334 7.83424C17.999 7.63213 17.9039 7.44562 17.7611 7.29998L13.805 3L12.4204 4.49999" stroke="#08261F" stroke-width="1.6" stroke-linecap="round" stroke-linejoin="round"/>
</svg>
